<?xml version="1.0" encoding="utf-8"?>
<!-- Generator: Adobe Illustrator 18.1.0, SVG Export Plug-In . SVG Version: 6.00 Build 0)  -->
<!DOCTYPE svg PUBLIC "-//W3C//DTD SVG 1.1//EN" "http://www.w3.org/Graphics/SVG/1.1/DTD/svg11.dtd">
<svg version="1.1" id="Layer_1" xmlns="http://www.w3.org/2000/svg" xmlns:xlink="http://www.w3.org/1999/xlink" x="0px" y="0px"
	 viewBox="0 0 75 75" enable-background="new 0 0 75 75" xml:space="preserve">
<g id="one">
	<circle id="circle" fill="#F47B4D" cx="37.5" cy="37.5" r="37.5"/>
	<path id="path" fill="#FFFFFF" d="M42.5,75h-10c0-17.9-14.6-32.5-32.5-32.5v-10C23.4,32.5,42.5,51.6,42.5,75z"/>
</g>
<g id="two">
	<circle id="circle_13_" fill="#F47B4D" cx="37.5" cy="37.5" r="37.5"/>
	<path id="path_1_" fill="#FFFFFF" d="M0,42.5v-10c17.9,0,32.5-14.6,32.5-32.5h10C42.5,23.4,23.4,42.5,0,42.5z"/>
</g>
<g id="three">
	<circle id="circle_2_" fill="#F47B4D" cx="37.5" cy="37.5" r="37.5"/>
	<path id="path_2_" fill="#FFFFFF" d="M75,42.5c-11.3-0.2-22.1-4-30-12.3S32.7,11.4,32.5,0h10c0.3,8.7,3.7,17.1,9.7,23.3
		c6,6.3,14.1,9.1,22.8,9.2V42.5z"/>
</g>
<g id="four">
	<ellipse id="circle_1_" fill="#F47B4D" cx="37.5" cy="37.5" rx="37.5" ry="37.5"/>
	<path id="path_3_" fill="#FFFFFF" d="M42.5,75h-10c0-23.4,19.1-42.5,42.5-42.5v10C57.1,42.5,42.5,57.1,42.5,75z"/>
</g>
<g id="five">
	<circle id="circle_4_" fill="#F47B4D" cx="37.5" cy="37.5" r="37.5"/>
	<g id="path_4_">
		<path fill="#FFFFFF" d="M42.5,75h-10c0-17.9-14.6-32.5-32.5-32.5v-10C23.4,32.5,42.5,51.6,42.5,75z"/>
		<path fill="#FFFFFF" d="M42.5,75h-10c0-23.4,19.1-42.5,42.5-42.5v10C57.1,42.5,42.5,57.1,42.5,75z"/>
	</g>
</g>
<g id="six">
	<ellipse id="circle_5_" fill="#F47B4D" cx="37.5" cy="37.5" rx="37.5" ry="37.5"/>
	<g id="path_5_">
		<path fill="#FFFFFF" d="M75,42.5C51.6,42.5,32.5,23.4,32.5,0h10c0,17.9,14.6,32.5,32.5,32.5V42.5z"/>
		<path fill="#FFFFFF" d="M42.5,75h-10c0-23.4,19-42.5,42.5-42.5v10C57,42.5,42.5,57.1,42.5,75z"/>
	</g>
</g>
<g id="seven">
	<circle id="circle_6_" fill="#F47B4D" cx="37.5" cy="37.5" r="37.5"/>
	<g id="path_6_">
		<g>
			<path fill="#FFFFFF" d="M0,42.5v-10c18.1,0,32.5-14.6,32.5-32.5h10C42.6,23.4,23.6,42.5,0,42.5z"/>
		</g>
		<g>
			<path fill="#FFFFFF" d="M75.2,42.5C51.9,42.5,32.5,23.4,32.5,0h10c0,17.9,14.9,32.5,32.5,32.5v10H75.2z"/>
		</g>
	</g>
</g>
<g id="eight">
	<circle id="circle_7_" fill="#F47B4D" cx="37.5" cy="37.5" r="37.5"/>
	<g id="path_7_">
		<path fill="#FFFFFF" d="M42.5,75h-10c0-17.9-14.6-32.5-32.5-32.5v-10C23.4,32.5,42.5,51.6,42.5,75z"/>
		<path fill="#FFFFFF" d="M0,42.5v-10c17.9,0,32.5-14.6,32.5-32.5h10C42.5,23.4,23.4,42.5,0,42.5z"/>
	</g>
</g>
<g id="nine">
	<ellipse id="circle_8_" fill="#F47B4D" cx="37.5" cy="37.5" rx="37.5" ry="37.5"/>
	<g id="path_8_">
		<path fill="#FFFFFF" d="M0,42.5v-10c18.1,0,32.5-14.6,32.5-32.5h10C42.6,23.4,23.6,42.5,0,42.5z"/>
		<path fill="#FFFFFF" d="M75,42.5c-23.2,0-42.3-19-42.5-42.5h10C42.7,17.9,57.3,32.5,75,32.5V42.5z"/>
		<path fill="#FFFFFF" d="M42.5,75h-10C32.8,51.6,51.9,32.5,75,32.5v10C57.4,42.5,42.8,57.1,42.5,75z"/>
	</g>
</g>
<g id="ten">
	<ellipse id="circle_9_" fill="#F47B4D" cx="37.5" cy="37.5" rx="37.5" ry="37.5"/>
	<g id="path_9_">
		<path fill="#FFFFFF" d="M42.5,75h-10C32.8,57.1,18.2,42.5,0,42.5v-10C23.6,32.5,42.8,51.6,42.5,75z"/>
		<path fill="#FFFFFF" d="M0,42.5v-10c18.1,0,32.7-14.6,32.5-32.5h10C42.8,23.4,23.6,42.5,0,42.5z"/>
		<path fill="#FFFFFF" d="M75,42.5c-23.2,0-42.3-19-42.5-42.5h10C42.7,17.9,57.3,32.5,75,32.5V42.5z"/>
	</g>
</g>
<g id="eleven">
	<ellipse id="circle_10_" fill="#F47B4D" cx="37.5" cy="37.5" rx="37.5" ry="37.5"/>
	<g id="path_10_">
		<path fill="#FFFFFF" d="M0,42.5v-10c17.9,0,32.5-14.6,32.5-32.5h10C42.5,23.4,23.4,42.5,0,42.5z"/>
		<path fill="#FFFFFF" d="M42.5,75h-10c0-17.9-14.6-32.5-32.5-32.5v-10C23.4,32.5,42.5,51.6,42.5,75z"/>
		<path fill="#FFFFFF" d="M42.5,75h-10c0-23.4,19.1-42.5,42.5-42.5v10C57.1,42.5,42.5,57.1,42.5,75z"/>
	</g>
</g>
<g id="twelve">
	<ellipse id="circle_11_" fill="#F47B4D" cx="37.5" cy="37.5" rx="37.5" ry="37.5"/>
	<g id="path_11_">
		<path fill="#FFFFFF" d="M75,42.5C51.6,42.5,32.5,23.4,32.5,0h10c0,17.9,14.6,32.5,32.5,32.5V42.5z"/>
		<path fill="#FFFFFF" d="M42.5,75h-10c0-23.4,19-42.5,42.5-42.5v10C57,42.5,42.5,57.1,42.5,75z"/>
		<path fill="#FFFFFF" d="M42.5,75h-10c0-17.9-14.6-32.5-32.5-32.5v-10C23.4,32.5,42.5,51.6,42.5,75z"/>
	</g>
</g>
<g id="thirteen">
	<circle id="circle_12_" fill="#F47B4D" cx="37.5" cy="37.5" r="37.5"/>
	<g id="path_12_">
		<path fill="#FFFFFF" d="M75,42.5c-23.4,0-42.5-19-42.5-42.5h10c0,17.9,14.6,32.5,32.5,32.5V42.5z"/>
		<path fill="#FFFFFF" d="M0,42.5v-10c17.9,0,32.5-14.6,32.5-32.5h10C42.5,23.4,23.4,42.5,0,42.5z"/>
		<path fill="#FFFFFF" d="M42.5,75h-10c0-18-14.6-32.5-32.5-32.5v-10C23.4,32.6,42.5,51.5,42.5,75z"/>
		<path fill="#FFFFFF" d="M42.5,75h-10c0-23.4,19-42.5,42.5-42.5v10C57,42.5,42.5,57.1,42.5,75z"/>
	</g>
</g>
</svg>
