<?xml version="1.0" encoding="utf-8"?>
<!-- Generator: Adobe Illustrator 18.1.0, SVG Export Plug-In . SVG Version: 6.00 Build 0)  -->
<!DOCTYPE svg PUBLIC "-//W3C//DTD SVG 1.1//EN" "http://www.w3.org/Graphics/SVG/1.1/DTD/svg11.dtd">
<svg version="1.1" id="Layer_1" xmlns="http://www.w3.org/2000/svg" xmlns:xlink="http://www.w3.org/1999/xlink" x="0px" y="0px"
	 viewBox="0 0 75 75" enable-background="new 0 0 75 75" xml:space="preserve" width="75" height="75">
<g id="one">
	<circle display="inline" fill="#F47B4D" cx="37.5" cy="37.5" r="37.5"/>
	<path display="inline" fill="#FFFFFF" d="M42.5,75h-10c0-17.9-14.6-32.5-32.5-32.5v-10C23.4,32.5,42.5,51.6,42.5,75z"/>
</g>
<g id="two">
	<circle display="inline" fill="#F47B4D" cx="37.5" cy="37.5" r="37.5"/>
	<path display="inline" fill="#FFFFFF" d="M0,42.5v-10c17.9,0,32.5-14.6,32.5-32.5h10C42.5,23.4,23.4,42.5,0,42.5z"/>
</g>
<g id="three">
	<circle display="inline" fill="#F47B4D" cx="37.5" cy="37.5" r="37.5"/>
	<path display="inline" fill="#FFFFFF" d="M74.8,43.2C63.5,43,52.9,38.5,45,30.2S32.9,11.4,33.1,0l10,0.2
		c-0.2,8.7,3.1,16.9,9.1,23.1c6,6.3,14.1,9.8,22.8,9.9L74.8,43.2z"/>
</g>
<g id="four">
	<ellipse display="inline" fill="#F47B4D" cx="37.5" cy="37.5" rx="37.5" ry="37.5"/>
	<path display="inline" fill="#FFFFFF" d="M42.5,75h-10c0-23.4,19.1-42.5,42.5-42.5v10C57.1,42.5,42.5,57.1,42.5,75z"/>
</g>
<g id="five">
	<circle display="inline" fill="#F47B4D" cx="37.5" cy="37.5" r="37.5"/>
	<path display="inline" fill="#FFFFFF" d="M42.5,75h-10c0-17.9-14.6-32.5-32.5-32.5v-10C23.4,32.5,42.5,51.6,42.5,75z"/>
	<path display="inline" fill="#FFFFFF" d="M42.5,75h-10c0-23.4,19.1-42.5,42.5-42.5v10C57.1,42.5,42.5,57.1,42.5,75z"/>
</g>
<g id="six">
	<ellipse display="inline" fill="#F47B4D" cx="37.5" cy="37.5" rx="37.5" ry="37.5"/>
	<path display="inline" fill="#FFFFFF" d="M75,42.5C51.6,42.5,32.5,23.4,32.5,0h10c0,17.9,14.6,32.5,32.5,32.5V42.5z"/>
	<path display="inline" fill="#FFFFFF" d="M42.5,75h-10c0-23.4,19-42.5,42.5-42.5v10C57,42.5,42.5,57.1,42.5,75z"/>
</g>
<g id="seven">
	<circle display="inline" fill="#F47B4D" cx="37.8" cy="37.5" r="37.5"/>
	<g display="inline">
		<path fill="#FFFFFF" d="M0.2,42.5v-10c17.9,0,32.5-14.6,32.5-32.5h10C42.8,23.4,23.6,42.5,0.2,42.5z"/>
	</g>
	<g display="inline">
		<path fill="#FFFFFF" d="M75.2,42.5C51.9,42.5,32.8,23.4,32.8,0h10c0,17.9,14.6,32.5,32.5,32.5v10H75.2z"/>
	</g>
</g>
<g id="eight">
	<circle display="inline" fill="#F47B4D" cx="37.5" cy="37.5" r="37.5"/>
	<path display="inline" fill="#FFFFFF" d="M42.5,75h-10c0-17.9-14.6-32.5-32.5-32.5v-10C23.4,32.5,42.5,51.6,42.5,75z"/>
	<path display="inline" fill="#FFFFFF" d="M0,42.5v-10c17.9,0,32.5-14.6,32.5-32.5h10C42.5,23.4,23.4,42.5,0,42.5z"/>
</g>
<g id="nine">
	<ellipse display="inline" fill="#F47B4D" cx="37.8" cy="37.5" rx="37.5" ry="37.5"/>
	<path display="inline" fill="#FFFFFF" d="M0.2,42.5v-10c17.9,0,32.5-14.6,32.5-32.5h10C42.8,23.4,23.6,42.5,0.2,42.5z"/>
	<path display="inline" fill="#FFFFFF" d="M75.2,42.5c-23.4,0-42.5-19-42.5-42.5h10c0,17.9,14.6,32.5,32.5,32.5V42.5z"/>
	<path display="inline" fill="#FFFFFF" d="M42.8,75h-10c0-23.4,19.1-42.5,42.5-42.5v10C57.4,42.5,42.8,57.1,42.8,75z"/>
</g>
<g id="ten">
	<ellipse display="inline" fill="#F47B4D" cx="37.8" cy="37.5" rx="37.5" ry="37.5"/>
	<path display="inline" fill="#FFFFFF" d="M42.8,75h-10c0-17.9-14.6-32.5-32.5-32.5v-10C23.6,32.5,42.8,51.6,42.8,75z"/>
	<path display="inline" fill="#FFFFFF" d="M0.2,42.5v-10c17.9,0,32.5-14.6,32.5-32.5h10C42.8,23.4,23.6,42.5,0.2,42.5z"/>
	<path display="inline" fill="#FFFFFF" d="M75.2,42.5c-23.4,0-42.5-19-42.5-42.5h10c0,17.9,14.6,32.5,32.5,32.5V42.5z"/>
</g>
<g id="eleven">
	<ellipse display="inline" fill="#F47B4D" cx="37.5" cy="37.5" rx="37.5" ry="37.5"/>
	<path display="inline" fill="#FFFFFF" d="M0,42.5v-10c17.9,0,32.5-14.6,32.5-32.5h10C42.5,23.4,23.4,42.5,0,42.5z"/>
	<path display="inline" fill="#FFFFFF" d="M42.5,75h-10c0-17.9-14.6-32.5-32.5-32.5v-10C23.4,32.5,42.5,51.6,42.5,75z"/>
	<path display="inline" fill="#FFFFFF" d="M42.5,75h-10c0-23.4,19.1-42.5,42.5-42.5v10C57.1,42.5,42.5,57.1,42.5,75z"/>
</g>
<g id="twelve">
	<ellipse display="inline" fill="#F47B4D" cx="37.5" cy="37.5" rx="37.5" ry="37.5"/>
	<path display="inline" fill="#FFFFFF" d="M75,42.5C51.6,42.5,32.5,23.4,32.5,0h10c0,17.9,14.6,32.5,32.5,32.5V42.5z"/>
	<path display="inline" fill="#FFFFFF" d="M42.5,75h-10c0-23.4,19-42.5,42.5-42.5v10C57,42.5,42.5,57.1,42.5,75z"/>
	<path display="inline" fill="#FFFFFF" d="M42.5,75h-10c0-17.9-14.6-32.5-32.5-32.5v-10C23.4,32.5,42.5,51.6,42.5,75z"/>
</g>
<g id="thirteen">
	<circle fill="#F47B4D" cx="37.5" cy="37.5" r="37.5"/>
	<path fill="#FFFFFF" d="M75,42.5c-23.4,0-42.5-19-42.5-42.5h10c0,17.9,14.6,32.5,32.5,32.5V42.5z"/>
	<path fill="#FFFFFF" d="M0,42.5v-10c17.9,0,32.5-14.6,32.5-32.5h10C42.5,23.4,23.4,42.5,0,42.5z"/>
	<path fill="#FFFFFF" d="M42.5,74.9h-10C32.5,57,17.9,42.4,0,42.4v-10C23.4,32.5,42.5,51.5,42.5,74.9z"/>
	<path fill="#FFFFFF" d="M42.5,75h-10c0-23.4,19-42.5,42.5-42.5v10C57,42.5,42.5,57.1,42.5,75z"/>
</g>
</svg>
